<?xml version="1.0" encoding="UTF-8" standalone="no"?>
<!DOCTYPE svg PUBLIC "-//W3C//DTD SVG 1.1//EN"
 "http://www.w3.org/Graphics/SVG/1.1/DTD/svg11.dtd">
<!-- Generated by graphviz version 2.47.3 (20210619.1520)
 -->
<!-- Title: dependencies Pages: 1 -->
<svg width="384pt" height="174pt"
 viewBox="0.00 0.00 384.00 173.80" xmlns="http://www.w3.org/2000/svg" xmlns:xlink="http://www.w3.org/1999/xlink">
<g id="graph0" class="graph" transform="scale(1 1) rotate(0) translate(4 169.8)">
<title>dependencies</title>
<polygon fill="white" stroke="transparent" points="-4,4 -4,-169.8 380,-169.8 380,4 -4,4"/>
<text text-anchor="middle" x="188" y="-8.2" font-family="sans-serif" font-size="14.00">dependencies</text>
<g id="clust1" class="cluster">
<title>cluster_JobDetailsModule</title>
<polygon fill="none" stroke="black" stroke-dasharray="1,5" points="8,-32.8 8,-157.8 368,-157.8 368,-32.8 8,-32.8"/>
</g>
<g id="clust4" class="cluster">
<title>cluster_JobDetailsModule_imports</title>
<polygon fill="none" stroke="black" points="180,-40.8 180,-92.8 360,-92.8 360,-40.8 180,-40.8"/>
</g>
<g id="clust2" class="cluster">
<title>cluster_JobDetailsModule_declarations</title>
<polygon fill="none" stroke="black" points="16,-40.8 16,-92.8 172,-92.8 172,-40.8 16,-40.8"/>
</g>
<!-- JobDetailsComponent -->
<g id="node1" class="node">
<title>JobDetailsComponent</title>
<polygon fill="#ffffb3" stroke="black" points="164.43,-84.8 23.57,-84.8 23.57,-48.8 164.43,-48.8 164.43,-84.8"/>
<text text-anchor="middle" x="94" y="-62.6" font-family="Times,serif" font-size="14.00">JobDetailsComponent</text>
</g>
<!-- JobDetailsModule -->
<g id="node2" class="node">
<title>JobDetailsModule</title>
<polygon fill="#8dd3c7" stroke="black" points="241.15,-149.8 238.15,-153.8 217.15,-153.8 214.15,-149.8 122.85,-149.8 122.85,-113.8 241.15,-113.8 241.15,-149.8"/>
<text text-anchor="middle" x="182" y="-127.6" font-family="Times,serif" font-size="14.00">JobDetailsModule</text>
</g>
<!-- JobDetailsComponent&#45;&gt;JobDetailsModule -->
<g id="edge1" class="edge">
<title>JobDetailsComponent&#45;&gt;JobDetailsModule</title>
<path fill="none" stroke="black" d="M143.45,-84.91C143.45,-84.91 143.45,-103.79 143.45,-103.79"/>
<polygon fill="black" stroke="black" points="139.95,-103.79 143.45,-113.79 146.95,-103.79 139.95,-103.79"/>
</g>
<!-- JobDetailsRoutingModule -->
<g id="node3" class="node">
<title>JobDetailsRoutingModule</title>
<polygon fill="#8dd3c7" stroke="black" points="351.76,-84.8 348.76,-88.8 327.76,-88.8 324.76,-84.8 188.24,-84.8 188.24,-48.8 351.76,-48.8 351.76,-84.8"/>
<text text-anchor="middle" x="270" y="-62.6" font-family="Times,serif" font-size="14.00">JobDetailsRoutingModule</text>
</g>
<!-- JobDetailsRoutingModule&#45;&gt;JobDetailsModule -->
<g id="edge2" class="edge">
<title>JobDetailsRoutingModule&#45;&gt;JobDetailsModule</title>
<path fill="none" stroke="black" d="M214.72,-84.91C214.72,-84.91 214.72,-103.79 214.72,-103.79"/>
<polygon fill="black" stroke="black" points="211.22,-103.79 214.72,-113.79 218.22,-103.79 211.22,-103.79"/>
</g>
</g>
</svg>
