<?xml version="1.0" encoding="UTF-8" standalone="no"?>
<!DOCTYPE svg PUBLIC "-//W3C//DTD SVG 1.1//EN"
 "http://www.w3.org/Graphics/SVG/1.1/DTD/svg11.dtd">
<!-- Generated by graphviz version 2.47.3 (20210619.1520)
 -->
<!-- Title: dependencies Pages: 1 -->
<svg width="580pt" height="247pt"
 viewBox="0.00 0.00 580.00 246.80" xmlns="http://www.w3.org/2000/svg" xmlns:xlink="http://www.w3.org/1999/xlink">
<g id="graph0" class="graph" transform="scale(1 1) rotate(0) translate(4 242.8)">
<title>dependencies</title>
<polygon fill="white" stroke="transparent" points="-4,4 -4,-242.8 576,-242.8 576,4 -4,4"/>
<text text-anchor="middle" x="286" y="-8.2" font-family="sans-serif" font-size="14.00">dependencies</text>
<g id="clust1" class="cluster">
<title>cluster_HomeModule</title>
<polygon fill="none" stroke="black" stroke-dasharray="1,5" points="8,-32.8 8,-230.8 564,-230.8 564,-32.8 8,-32.8"/>
</g>
<g id="clust7" class="cluster">
<title>cluster_HomeModule_exports</title>
<polygon fill="none" stroke="black" points="202,-170.8 202,-222.8 324,-222.8 324,-170.8 202,-170.8"/>
</g>
<g id="clust6" class="cluster">
<title>cluster_HomeModule_imports</title>
<polygon fill="none" stroke="black" points="402,-40.8 402,-92.8 556,-92.8 556,-40.8 402,-40.8"/>
</g>
<g id="clust2" class="cluster">
<title>cluster_HomeModule_declarations</title>
<polygon fill="none" stroke="black" points="16,-40.8 16,-92.8 394,-92.8 394,-40.8 16,-40.8"/>
</g>
<!-- HomeComponent -->
<g id="node1" class="node">
<title>HomeComponent</title>
<polygon fill="#ffffb3" stroke="black" points="385.55,-84.8 270.45,-84.8 270.45,-48.8 385.55,-48.8 385.55,-84.8"/>
<text text-anchor="middle" x="328" y="-62.6" font-family="Times,serif" font-size="14.00">HomeComponent</text>
</g>
<!-- HomeModule -->
<g id="node4" class="node">
<title>HomeModule</title>
<polygon fill="#8dd3c7" stroke="black" points="309.76,-149.8 306.76,-153.8 285.76,-153.8 282.76,-149.8 216.24,-149.8 216.24,-113.8 309.76,-113.8 309.76,-149.8"/>
<text text-anchor="middle" x="263" y="-127.6" font-family="Times,serif" font-size="14.00">HomeModule</text>
</g>
<!-- HomeComponent&#45;&gt;HomeModule -->
<g id="edge1" class="edge">
<title>HomeComponent&#45;&gt;HomeModule</title>
<path fill="none" stroke="black" d="M290.05,-84.91C290.05,-84.91 290.05,-103.79 290.05,-103.79"/>
<polygon fill="black" stroke="black" points="286.55,-103.79 290.05,-113.79 293.55,-103.79 286.55,-103.79"/>
</g>
<!-- ItemComponent -->
<g id="node2" class="node">
<title>ItemComponent</title>
<polygon fill="#ffffb3" stroke="black" points="252.49,-84.8 145.51,-84.8 145.51,-48.8 252.49,-48.8 252.49,-84.8"/>
<text text-anchor="middle" x="199" y="-62.6" font-family="Times,serif" font-size="14.00">ItemComponent</text>
</g>
<!-- ItemComponent&#45;&gt;HomeModule -->
<g id="edge2" class="edge">
<title>ItemComponent&#45;&gt;HomeModule</title>
<path fill="none" stroke="black" d="M234.31,-84.91C234.31,-84.91 234.31,-103.79 234.31,-103.79"/>
<polygon fill="black" stroke="black" points="230.81,-103.79 234.31,-113.79 237.81,-103.79 230.81,-103.79"/>
</g>
<!-- ListComponent -->
<g id="node3" class="node">
<title>ListComponent</title>
<polygon fill="#ffffb3" stroke="black" points="127.61,-84.8 24.39,-84.8 24.39,-48.8 127.61,-48.8 127.61,-84.8"/>
<text text-anchor="middle" x="76" y="-62.6" font-family="Times,serif" font-size="14.00">ListComponent</text>
</g>
<!-- ListComponent&#45;&gt;HomeModule -->
<g id="edge3" class="edge">
<title>ListComponent&#45;&gt;HomeModule</title>
<path fill="none" stroke="black" d="M76,-84.91C76,-104.14 76,-131.8 76,-131.8 76,-131.8 205.81,-131.8 205.81,-131.8"/>
<polygon fill="black" stroke="black" points="205.81,-135.3 215.81,-131.8 205.81,-128.3 205.81,-135.3"/>
</g>
<!-- ListComponent  -->
<g id="node6" class="node">
<title>ListComponent </title>
<polygon fill="#fb8072" stroke="black" points="316.11,-214.8 209.89,-214.8 209.89,-178.8 316.11,-178.8 316.11,-214.8"/>
<text text-anchor="middle" x="263" y="-192.6" font-family="Times,serif" font-size="14.00">ListComponent </text>
</g>
<!-- HomeModule&#45;&gt;ListComponent  -->
<g id="edge5" class="edge">
<title>HomeModule&#45;&gt;ListComponent </title>
<path fill="none" stroke="black" stroke-dasharray="5,2" d="M263,-149.91C263,-149.91 263,-168.79 263,-168.79"/>
<polygon fill="black" stroke="black" points="259.5,-168.79 263,-178.79 266.5,-168.79 259.5,-168.79"/>
</g>
<!-- HomeRoutingModule -->
<g id="node5" class="node">
<title>HomeRoutingModule</title>
<polygon fill="#8dd3c7" stroke="black" points="548.38,-84.8 545.38,-88.8 524.38,-88.8 521.38,-84.8 409.62,-84.8 409.62,-48.8 548.38,-48.8 548.38,-84.8"/>
<text text-anchor="middle" x="479" y="-62.6" font-family="Times,serif" font-size="14.00">HomeRoutingModule</text>
</g>
<!-- HomeRoutingModule&#45;&gt;HomeModule -->
<g id="edge4" class="edge">
<title>HomeRoutingModule&#45;&gt;HomeModule</title>
<path fill="none" stroke="black" d="M479,-84.91C479,-104.14 479,-131.8 479,-131.8 479,-131.8 319.87,-131.8 319.87,-131.8"/>
<polygon fill="black" stroke="black" points="319.87,-128.3 309.87,-131.8 319.87,-135.3 319.87,-128.3"/>
</g>
</g>
</svg>
