<?xml version="1.0" encoding="UTF-8" standalone="no"?>
<!DOCTYPE svg PUBLIC "-//W3C//DTD SVG 1.1//EN"
 "http://www.w3.org/Graphics/SVG/1.1/DTD/svg11.dtd">
<!-- Generated by graphviz version 2.47.3 (20210619.1520)
 -->
<!-- Title: dependencies Pages: 1 -->
<svg width="849pt" height="247pt"
 viewBox="0.00 0.00 849.00 246.80" xmlns="http://www.w3.org/2000/svg" xmlns:xlink="http://www.w3.org/1999/xlink">
<g id="graph0" class="graph" transform="scale(1 1) rotate(0) translate(4 242.8)">
<title>dependencies</title>
<polygon fill="white" stroke="transparent" points="-4,4 -4,-242.8 845,-242.8 845,4 -4,4"/>
<text text-anchor="middle" x="420.5" y="-8.2" font-family="sans-serif" font-size="14.00">dependencies</text>
<g id="clust1" class="cluster">
<title>cluster_AppModule</title>
<polygon fill="none" stroke="black" stroke-dasharray="1,5" points="8,-32.8 8,-230.8 833,-230.8 833,-32.8 8,-32.8"/>
</g>
<g id="clust4" class="cluster">
<title>cluster_AppModule_imports</title>
<polygon fill="none" stroke="black" points="146,-40.8 146,-92.8 825,-92.8 825,-40.8 146,-40.8"/>
</g>
<g id="clust6" class="cluster">
<title>cluster_AppModule_bootstrap</title>
<polygon fill="none" stroke="black" points="383,-170.8 383,-222.8 507,-222.8 507,-170.8 383,-170.8"/>
</g>
<g id="clust2" class="cluster">
<title>cluster_AppModule_declarations</title>
<polygon fill="none" stroke="black" points="16,-40.8 16,-92.8 138,-92.8 138,-40.8 16,-40.8"/>
</g>
<!-- AppComponent -->
<g id="node1" class="node">
<title>AppComponent</title>
<polygon fill="#ffffb3" stroke="black" points="129.94,-84.8 24.06,-84.8 24.06,-48.8 129.94,-48.8 129.94,-84.8"/>
<text text-anchor="middle" x="77" y="-62.6" font-family="Times,serif" font-size="14.00">AppComponent</text>
</g>
<!-- AppModule -->
<g id="node2" class="node">
<title>AppModule</title>
<polygon fill="#8dd3c7" stroke="black" points="486.66,-149.8 483.66,-153.8 462.66,-153.8 459.66,-149.8 403.34,-149.8 403.34,-113.8 486.66,-113.8 486.66,-149.8"/>
<text text-anchor="middle" x="445" y="-127.6" font-family="Times,serif" font-size="14.00">AppModule</text>
</g>
<!-- AppComponent&#45;&gt;AppModule -->
<g id="edge1" class="edge">
<title>AppComponent&#45;&gt;AppModule</title>
<path fill="none" stroke="black" d="M77,-84.91C77,-104.14 77,-131.8 77,-131.8 77,-131.8 393.14,-131.8 393.14,-131.8"/>
<polygon fill="black" stroke="black" points="393.14,-135.3 403.14,-131.8 393.14,-128.3 393.14,-135.3"/>
</g>
<!-- AppComponent  -->
<g id="node6" class="node">
<title>AppComponent </title>
<polygon fill="#80b1d3" stroke="black" points="499.44,-214.8 390.56,-214.8 390.56,-178.8 499.44,-178.8 499.44,-214.8"/>
<text text-anchor="middle" x="445" y="-192.6" font-family="Times,serif" font-size="14.00">AppComponent </text>
</g>
<!-- AppModule&#45;&gt;AppComponent  -->
<g id="edge5" class="edge">
<title>AppModule&#45;&gt;AppComponent </title>
<path fill="none" stroke="black" stroke-dasharray="1,5" d="M445,-149.91C445,-149.91 445,-168.79 445,-168.79"/>
<polygon fill="black" stroke="black" points="441.5,-168.79 445,-178.79 448.5,-168.79 441.5,-168.79"/>
</g>
<!-- AppRoutingModule -->
<g id="node3" class="node">
<title>AppRoutingModule</title>
<polygon fill="#8dd3c7" stroke="black" points="817.27,-84.8 814.27,-88.8 793.27,-88.8 790.27,-84.8 688.73,-84.8 688.73,-48.8 817.27,-48.8 817.27,-84.8"/>
<text text-anchor="middle" x="753" y="-62.6" font-family="Times,serif" font-size="14.00">AppRoutingModule</text>
</g>
<!-- AppRoutingModule&#45;&gt;AppModule -->
<g id="edge2" class="edge">
<title>AppRoutingModule&#45;&gt;AppModule</title>
<path fill="none" stroke="black" d="M753,-85.08C753,-106.12 753,-137.8 753,-137.8 753,-137.8 496.86,-137.8 496.86,-137.8"/>
<polygon fill="black" stroke="black" points="496.86,-134.3 486.86,-137.8 496.86,-141.3 496.86,-134.3"/>
</g>
<!-- provideAuth(() =&gt; getAuth()) -->
<g id="node4" class="node">
<title>provideAuth(() =&gt; getAuth())</title>
<polygon fill="#8dd3c7" stroke="black" points="670.12,-84.8 667.12,-88.8 646.12,-88.8 643.12,-84.8 487.88,-84.8 487.88,-48.8 670.12,-48.8 670.12,-84.8"/>
<text text-anchor="middle" x="579" y="-62.6" font-family="Times,serif" font-size="14.00">provideAuth(() =&gt; getAuth())</text>
</g>
<!-- provideAuth(() =&gt; getAuth())&#45;&gt;AppModule -->
<g id="edge3" class="edge">
<title>provideAuth(() =&gt; getAuth())&#45;&gt;AppModule</title>
<path fill="none" stroke="black" d="M493.58,-84.82C493.58,-102.17 493.58,-125.8 493.58,-125.8 493.58,-125.8 492.9,-125.8 492.9,-125.8"/>
<polygon fill="black" stroke="black" points="496.83,-122.3 486.83,-125.8 496.83,-129.3 496.83,-122.3"/>
</g>
<!-- provideFirebaseApp(() =&gt; initializeApp(environment -->
<g id="node5" class="node">
<title>provideFirebaseApp(() =&gt; initializeApp(environment</title>
<polygon fill="#8dd3c7" stroke="black" points="469.58,-84.8 466.58,-88.8 445.58,-88.8 442.58,-84.8 154.42,-84.8 154.42,-48.8 469.58,-48.8 469.58,-84.8"/>
<text text-anchor="middle" x="312" y="-62.6" font-family="Times,serif" font-size="14.00">provideFirebaseApp(() =&gt; initializeApp(environment</text>
</g>
<!-- provideFirebaseApp(() =&gt; initializeApp(environment&#45;&gt;AppModule -->
<g id="edge4" class="edge">
<title>provideFirebaseApp(() =&gt; initializeApp(environment&#45;&gt;AppModule</title>
<path fill="none" stroke="black" d="M436.48,-84.91C436.48,-84.91 436.48,-103.79 436.48,-103.79"/>
<polygon fill="black" stroke="black" points="432.98,-103.79 436.48,-113.79 439.98,-103.79 432.98,-103.79"/>
</g>
</g>
</svg>
