<?xml version="1.0" encoding="UTF-8" standalone="no"?>
<!DOCTYPE svg PUBLIC "-//W3C//DTD SVG 1.1//EN"
 "http://www.w3.org/Graphics/SVG/1.1/DTD/svg11.dtd">
<!-- Generated by graphviz version 2.47.3 (20210619.1520)
 -->
<!-- Title: dependencies Pages: 1 -->
<svg width="1781pt" height="247pt"
 viewBox="0.00 0.00 1781.00 246.80" xmlns="http://www.w3.org/2000/svg" xmlns:xlink="http://www.w3.org/1999/xlink">
<g id="graph0" class="graph" transform="scale(1 1) rotate(0) translate(4 242.8)">
<title>dependencies</title>
<polygon fill="white" stroke="transparent" points="-4,4 -4,-242.8 1777,-242.8 1777,4 -4,4"/>
<text text-anchor="middle" x="886.5" y="-8.2" font-family="sans-serif" font-size="14.00">dependencies</text>
<g id="clust1" class="cluster">
<title>cluster_AppModule</title>
<polygon fill="none" stroke="black" stroke-dasharray="1,5" points="8,-32.8 8,-230.8 833,-230.8 833,-32.8 8,-32.8"/>
</g>
<g id="clust2" class="cluster">
<title>cluster_AppModule_declarations</title>
<polygon fill="none" stroke="black" points="703,-40.8 703,-92.8 825,-92.8 825,-40.8 703,-40.8"/>
</g>
<g id="clust4" class="cluster">
<title>cluster_AppModule_imports</title>
<polygon fill="none" stroke="black" points="16,-40.8 16,-92.8 695,-92.8 695,-40.8 16,-40.8"/>
</g>
<g id="clust6" class="cluster">
<title>cluster_AppModule_bootstrap</title>
<polygon fill="none" stroke="black" points="474,-170.8 474,-222.8 598,-222.8 598,-170.8 474,-170.8"/>
</g>
<g id="clust14" class="cluster">
<title>cluster_HomeModule</title>
<polygon fill="none" stroke="black" stroke-dasharray="1,5" points="841,-32.8 841,-230.8 1397,-230.8 1397,-32.8 841,-32.8"/>
</g>
<g id="clust15" class="cluster">
<title>cluster_HomeModule_declarations</title>
<polygon fill="none" stroke="black" points="1011,-40.8 1011,-92.8 1389,-92.8 1389,-40.8 1011,-40.8"/>
</g>
<g id="clust19" class="cluster">
<title>cluster_HomeModule_imports</title>
<polygon fill="none" stroke="black" points="849,-40.8 849,-92.8 1003,-92.8 1003,-40.8 849,-40.8"/>
</g>
<g id="clust20" class="cluster">
<title>cluster_HomeModule_exports</title>
<polygon fill="none" stroke="black" points="1071,-170.8 1071,-222.8 1193,-222.8 1193,-170.8 1071,-170.8"/>
</g>
<g id="clust29" class="cluster">
<title>cluster_JobDetailsModule</title>
<polygon fill="none" stroke="black" stroke-dasharray="1,5" points="1405,-32.8 1405,-157.8 1765,-157.8 1765,-32.8 1405,-32.8"/>
</g>
<g id="clust30" class="cluster">
<title>cluster_JobDetailsModule_declarations</title>
<polygon fill="none" stroke="black" points="1601,-40.8 1601,-92.8 1757,-92.8 1757,-40.8 1601,-40.8"/>
</g>
<g id="clust32" class="cluster">
<title>cluster_JobDetailsModule_imports</title>
<polygon fill="none" stroke="black" points="1413,-40.8 1413,-92.8 1593,-92.8 1593,-40.8 1413,-40.8"/>
</g>
<!-- AppComponent -->
<g id="node1" class="node">
<title>AppComponent</title>
<polygon fill="#ffffb3" stroke="black" points="816.94,-84.8 711.06,-84.8 711.06,-48.8 816.94,-48.8 816.94,-84.8"/>
<text text-anchor="middle" x="764" y="-62.6" font-family="Times,serif" font-size="14.00">AppComponent</text>
</g>
<!-- AppModule -->
<g id="node2" class="node">
<title>AppModule</title>
<polygon fill="#8dd3c7" stroke="black" points="577.66,-149.8 574.66,-153.8 553.66,-153.8 550.66,-149.8 494.34,-149.8 494.34,-113.8 577.66,-113.8 577.66,-149.8"/>
<text text-anchor="middle" x="536" y="-127.6" font-family="Times,serif" font-size="14.00">AppModule</text>
</g>
<!-- AppComponent&#45;&gt;AppModule -->
<g id="edge1" class="edge">
<title>AppComponent&#45;&gt;AppModule</title>
<path fill="none" stroke="black" d="M764,-84.82C764,-102.17 764,-125.8 764,-125.8 764,-125.8 587.82,-125.8 587.82,-125.8"/>
<polygon fill="black" stroke="black" points="587.82,-122.3 577.82,-125.8 587.82,-129.3 587.82,-122.3"/>
</g>
<!-- AppComponent  -->
<g id="node6" class="node">
<title>AppComponent </title>
<polygon fill="#80b1d3" stroke="black" points="590.44,-214.8 481.56,-214.8 481.56,-178.8 590.44,-178.8 590.44,-214.8"/>
<text text-anchor="middle" x="536" y="-192.6" font-family="Times,serif" font-size="14.00">AppComponent </text>
</g>
<!-- AppModule&#45;&gt;AppComponent  -->
<g id="edge5" class="edge">
<title>AppModule&#45;&gt;AppComponent </title>
<path fill="none" stroke="black" stroke-dasharray="1,5" d="M536,-149.91C536,-149.91 536,-168.79 536,-168.79"/>
<polygon fill="black" stroke="black" points="532.5,-168.79 536,-178.79 539.5,-168.79 532.5,-168.79"/>
</g>
<!-- AppRoutingModule -->
<g id="node3" class="node">
<title>AppRoutingModule</title>
<polygon fill="#8dd3c7" stroke="black" points="687.27,-84.8 684.27,-88.8 663.27,-88.8 660.27,-84.8 558.73,-84.8 558.73,-48.8 687.27,-48.8 687.27,-84.8"/>
<text text-anchor="middle" x="623" y="-62.6" font-family="Times,serif" font-size="14.00">AppRoutingModule</text>
</g>
<!-- AppRoutingModule&#45;&gt;AppModule -->
<g id="edge2" class="edge">
<title>AppRoutingModule&#45;&gt;AppModule</title>
<path fill="none" stroke="black" d="M568.22,-84.91C568.22,-84.91 568.22,-103.79 568.22,-103.79"/>
<polygon fill="black" stroke="black" points="564.72,-103.79 568.22,-113.79 571.72,-103.79 564.72,-103.79"/>
</g>
<!-- provideAuth(() =&gt; getAuth()) -->
<g id="node4" class="node">
<title>provideAuth(() =&gt; getAuth())</title>
<polygon fill="#8dd3c7" stroke="black" points="540.12,-84.8 537.12,-88.8 516.12,-88.8 513.12,-84.8 357.88,-84.8 357.88,-48.8 540.12,-48.8 540.12,-84.8"/>
<text text-anchor="middle" x="449" y="-62.6" font-family="Times,serif" font-size="14.00">provideAuth(() =&gt; getAuth())</text>
</g>
<!-- provideAuth(() =&gt; getAuth())&#45;&gt;AppModule -->
<g id="edge3" class="edge">
<title>provideAuth(() =&gt; getAuth())&#45;&gt;AppModule</title>
<path fill="none" stroke="black" d="M517.24,-84.91C517.24,-84.91 517.24,-103.79 517.24,-103.79"/>
<polygon fill="black" stroke="black" points="513.74,-103.79 517.24,-113.79 520.74,-103.79 513.74,-103.79"/>
</g>
<!-- provideFirebaseApp(() =&gt; initializeApp(environment -->
<g id="node5" class="node">
<title>provideFirebaseApp(() =&gt; initializeApp(environment</title>
<polygon fill="#8dd3c7" stroke="black" points="339.58,-84.8 336.58,-88.8 315.58,-88.8 312.58,-84.8 24.42,-84.8 24.42,-48.8 339.58,-48.8 339.58,-84.8"/>
<text text-anchor="middle" x="182" y="-62.6" font-family="Times,serif" font-size="14.00">provideFirebaseApp(() =&gt; initializeApp(environment</text>
</g>
<!-- provideFirebaseApp(() =&gt; initializeApp(environment&#45;&gt;AppModule -->
<g id="edge4" class="edge">
<title>provideFirebaseApp(() =&gt; initializeApp(environment&#45;&gt;AppModule</title>
<path fill="none" stroke="black" d="M182,-84.91C182,-104.14 182,-131.8 182,-131.8 182,-131.8 484,-131.8 484,-131.8"/>
<polygon fill="black" stroke="black" points="484,-135.3 494,-131.8 484,-128.3 484,-135.3"/>
</g>
<!-- HomeComponent -->
<g id="node7" class="node">
<title>HomeComponent</title>
<polygon fill="#ffffb3" stroke="black" points="1380.55,-84.8 1265.45,-84.8 1265.45,-48.8 1380.55,-48.8 1380.55,-84.8"/>
<text text-anchor="middle" x="1323" y="-62.6" font-family="Times,serif" font-size="14.00">HomeComponent</text>
</g>
<!-- HomeModule -->
<g id="node10" class="node">
<title>HomeModule</title>
<polygon fill="#8dd3c7" stroke="black" points="1178.76,-149.8 1175.76,-153.8 1154.76,-153.8 1151.76,-149.8 1085.24,-149.8 1085.24,-113.8 1178.76,-113.8 1178.76,-149.8"/>
<text text-anchor="middle" x="1132" y="-127.6" font-family="Times,serif" font-size="14.00">HomeModule</text>
</g>
<!-- HomeComponent&#45;&gt;HomeModule -->
<g id="edge6" class="edge">
<title>HomeComponent&#45;&gt;HomeModule</title>
<path fill="none" stroke="black" d="M1323,-84.91C1323,-104.14 1323,-131.8 1323,-131.8 1323,-131.8 1189.21,-131.8 1189.21,-131.8"/>
<polygon fill="black" stroke="black" points="1189.21,-128.3 1179.21,-131.8 1189.21,-135.3 1189.21,-128.3"/>
</g>
<!-- ItemComponent -->
<g id="node8" class="node">
<title>ItemComponent</title>
<polygon fill="#ffffb3" stroke="black" points="1247.49,-84.8 1140.51,-84.8 1140.51,-48.8 1247.49,-48.8 1247.49,-84.8"/>
<text text-anchor="middle" x="1194" y="-62.6" font-family="Times,serif" font-size="14.00">ItemComponent</text>
</g>
<!-- ItemComponent&#45;&gt;HomeModule -->
<g id="edge7" class="edge">
<title>ItemComponent&#45;&gt;HomeModule</title>
<path fill="none" stroke="black" d="M1159.69,-84.91C1159.69,-84.91 1159.69,-103.79 1159.69,-103.79"/>
<polygon fill="black" stroke="black" points="1156.19,-103.79 1159.69,-113.79 1163.19,-103.79 1156.19,-103.79"/>
</g>
<!-- ListComponent -->
<g id="node9" class="node">
<title>ListComponent</title>
<polygon fill="#ffffb3" stroke="black" points="1122.61,-84.8 1019.39,-84.8 1019.39,-48.8 1122.61,-48.8 1122.61,-84.8"/>
<text text-anchor="middle" x="1071" y="-62.6" font-family="Times,serif" font-size="14.00">ListComponent</text>
</g>
<!-- ListComponent&#45;&gt;HomeModule -->
<g id="edge8" class="edge">
<title>ListComponent&#45;&gt;HomeModule</title>
<path fill="none" stroke="black" d="M1103.84,-84.91C1103.84,-84.91 1103.84,-103.79 1103.84,-103.79"/>
<polygon fill="black" stroke="black" points="1100.34,-103.79 1103.84,-113.79 1107.34,-103.79 1100.34,-103.79"/>
</g>
<!-- ListComponent  -->
<g id="node12" class="node">
<title>ListComponent </title>
<polygon fill="#fb8072" stroke="black" points="1185.11,-214.8 1078.89,-214.8 1078.89,-178.8 1185.11,-178.8 1185.11,-214.8"/>
<text text-anchor="middle" x="1132" y="-192.6" font-family="Times,serif" font-size="14.00">ListComponent </text>
</g>
<!-- HomeModule&#45;&gt;ListComponent  -->
<g id="edge10" class="edge">
<title>HomeModule&#45;&gt;ListComponent </title>
<path fill="none" stroke="black" stroke-dasharray="5,2" d="M1132,-149.91C1132,-149.91 1132,-168.79 1132,-168.79"/>
<polygon fill="black" stroke="black" points="1128.5,-168.79 1132,-178.79 1135.5,-168.79 1128.5,-168.79"/>
</g>
<!-- HomeRoutingModule -->
<g id="node11" class="node">
<title>HomeRoutingModule</title>
<polygon fill="#8dd3c7" stroke="black" points="995.38,-84.8 992.38,-88.8 971.38,-88.8 968.38,-84.8 856.62,-84.8 856.62,-48.8 995.38,-48.8 995.38,-84.8"/>
<text text-anchor="middle" x="926" y="-62.6" font-family="Times,serif" font-size="14.00">HomeRoutingModule</text>
</g>
<!-- HomeRoutingModule&#45;&gt;HomeModule -->
<g id="edge9" class="edge">
<title>HomeRoutingModule&#45;&gt;HomeModule</title>
<path fill="none" stroke="black" d="M926,-85.08C926,-106.12 926,-137.8 926,-137.8 926,-137.8 1075,-137.8 1075,-137.8"/>
<polygon fill="black" stroke="black" points="1075,-141.3 1085,-137.8 1075,-134.3 1075,-141.3"/>
</g>
<!-- JobDetailsComponent -->
<g id="node13" class="node">
<title>JobDetailsComponent</title>
<polygon fill="#ffffb3" stroke="black" points="1749.43,-84.8 1608.57,-84.8 1608.57,-48.8 1749.43,-48.8 1749.43,-84.8"/>
<text text-anchor="middle" x="1679" y="-62.6" font-family="Times,serif" font-size="14.00">JobDetailsComponent</text>
</g>
<!-- JobDetailsModule -->
<g id="node14" class="node">
<title>JobDetailsModule</title>
<polygon fill="#8dd3c7" stroke="black" points="1650.15,-149.8 1647.15,-153.8 1626.15,-153.8 1623.15,-149.8 1531.85,-149.8 1531.85,-113.8 1650.15,-113.8 1650.15,-149.8"/>
<text text-anchor="middle" x="1591" y="-127.6" font-family="Times,serif" font-size="14.00">JobDetailsModule</text>
</g>
<!-- JobDetailsComponent&#45;&gt;JobDetailsModule -->
<g id="edge11" class="edge">
<title>JobDetailsComponent&#45;&gt;JobDetailsModule</title>
<path fill="none" stroke="black" d="M1629.55,-84.91C1629.55,-84.91 1629.55,-103.79 1629.55,-103.79"/>
<polygon fill="black" stroke="black" points="1626.05,-103.79 1629.55,-113.79 1633.05,-103.79 1626.05,-103.79"/>
</g>
<!-- JobDetailsRoutingModule -->
<g id="node15" class="node">
<title>JobDetailsRoutingModule</title>
<polygon fill="#8dd3c7" stroke="black" points="1584.76,-84.8 1581.76,-88.8 1560.76,-88.8 1557.76,-84.8 1421.24,-84.8 1421.24,-48.8 1584.76,-48.8 1584.76,-84.8"/>
<text text-anchor="middle" x="1503" y="-62.6" font-family="Times,serif" font-size="14.00">JobDetailsRoutingModule</text>
</g>
<!-- JobDetailsRoutingModule&#45;&gt;JobDetailsModule -->
<g id="edge12" class="edge">
<title>JobDetailsRoutingModule&#45;&gt;JobDetailsModule</title>
<path fill="none" stroke="black" d="M1558.28,-84.91C1558.28,-84.91 1558.28,-103.79 1558.28,-103.79"/>
<polygon fill="black" stroke="black" points="1554.78,-103.79 1558.28,-113.79 1561.78,-103.79 1554.78,-103.79"/>
</g>
</g>
</svg>
